<?xml version="1.0" standalone="no"?><!DOCTYPE svg PUBLIC "-//W3C//DTD SVG 1.1//EN" "http://www.w3.org/Graphics/SVG/1.1/DTD/svg11.dtd"><svg t="1695103991908" class="icon" viewBox="0 0 1024 1024" version="1.1" xmlns="http://www.w3.org/2000/svg" p-id="2235" xmlns:xlink="http://www.w3.org/1999/xlink" width="200" height="200"><path d="M977.4528 628.6784c-25.7088 0-46.5472-20.8384-46.5472-46.5472l-0.384-466.5728L233.472 115.9552c-25.7088 0-46.5472-20.8384-46.5472-46.5472 0-25.7088 20.8384-46.5536 46.5472-46.5536l649.44-0.3712 0 0.384 49.4592 0c45.056 0 82.624 32.0192 91.2256 74.5472L1024 582.1312C1024 607.84 1003.1552 628.6784 977.4528 628.6784zM884.4288 241.76l0.384 294.2784c0 1.184-0.2624 2.2912-0.3456 3.4496l0.288 192.224c-5.3312 46.3488-44.2496 82.4832-92.0256 82.4832l-49.4592 0 0 0.1216-258.3296 0.2944-174.6176 173.2672c-18.1824 18.176-47.6544 18.176-65.8304 0s-18.176-47.648 0-65.824l180.992-179.5968c8.3328-12.5888 22.5856-20.9216 38.8096-20.9216l1.1584 0c0.2368 0 0.4608 0 0.704 0l325.4784-0.3648-0.1088-73.184c-0.0256 3.3856-0.064 6.6944-0.128 9.7728l0.1152-17.0048-0.2304-153.0752c0-1.2224 0.2688-2.3616 0.3584-3.5584l-0.2048-157.0624c-0.9728-61.2864-8.608-70.0672-61.8624-71.264l61.4016 0.416 0.4608 67.616-0.0896-68.1728-68.5696 0.0384c2.304 0.0256 4.6528 0.0576 6.8032 0.1024l-14.8288-0.1024-561.9008 0.3008c-48.8064 1.6448-58.0224 10.4384-59.712 54.9504l0.2816 365.8304c2.4128 36.8768 13.4784 43.1488 63.0144 44.1408l-62.9824-0.416 0 0.9472 186.464-0.3392c25.7088 0 46.5472 20.8384 46.5472 46.5472s-20.8384 46.5472-46.5472 46.5472l-137.4144 0.2496 0-0.2624-49.4592 0c-50.0288 0-90.528-39.5584-92.6912-89.0496L0 255.1104c0.2688-49.76 39.6224-89.9712 88.9024-92.1792l704.2176-0.3776C839.6096 162.7584 877.7088 197.1008 884.4288 241.76zM93.0944 256.0256l0.0256 31.9872 0.2112-31.8016 29.888-0.1984L93.0944 256.0256zM733.8304 720.8832c48.96-1.1904 56.48-9.3312 57.568-63.1296l-0.4224 62.752L733.8304 720.8832zM733.8304 720.8832c-10.0032 0.2432-21.536 0.2368-35.3216 0.2368L733.8304 720.8832zM156.4352 720.9216l30.8288 0.2048C175.5712 721.12 165.4144 721.1008 156.4352 720.9216zM866.2016 116.1472l62.9696 0.416 0.352 52.256C928.1152 124.3008 919.2512 117.2224 866.2016 116.1472zM866.2016 116.1472l-30.9568-0.2048C846.9888 115.9424 857.1968 115.968 866.2016 116.1472zM929.7984 209.0368l-0.2688-40.2112C929.8752 179.8208 929.7984 192.9728 929.7984 209.0368z" fill="#272636" p-id="2236"></path></svg>